<svg xmlns="http://www.w3.org/2000/svg" viewBox="0 0 284.33 187.87"><defs><style>.cls-1{fill:#fff;}.cls-2{fill:none;stroke:#000;stroke-miterlimit:10;}.cls-3{font-size:12px;}.cls-3,.cls-7{font-family:TimesNewRomanPSMT, Persian;}.cls-4,.cls-5{font-family:TimesNewRomanPS-ItalicMT, Times New Roman;}.cls-4,.cls-6{font-style:italic;}.cls-5{font-size:10px;}.cls-8{font-family:TimesNewRomanPS-BoldMT, Times New Roman;font-weight:700;}</style></defs><title>Asset 1</title><g id="Layer_2" data-name="Layer 2"><g id="Layer_1-2" data-name="Layer 1"><path class="cls-1" d="M25.83,117.26A25.33,25.33,0,1,1,51.17,91.93,25.36,25.36,0,0,1,25.83,117.26Z"/><path d="M25.83,67.09A24.83,24.83,0,1,1,1,91.93,24.86,24.86,0,0,1,25.83,67.09m0-1A25.83,25.83,0,1,0,51.67,91.93,25.83,25.83,0,0,0,25.83,66.09Z"/><path class="cls-1" d="M25.83,187.37A25.33,25.33,0,1,1,51.17,162,25.36,25.36,0,0,1,25.83,187.37Z"/><path d="M25.83,137.2A24.83,24.83,0,1,1,1,162,24.86,24.86,0,0,1,25.83,137.2m0-1A25.83,25.83,0,1,0,51.67,162,25.83,25.83,0,0,0,25.83,136.2Z"/><path class="cls-1" d="M150.72,152.93a25.33,25.33,0,1,1,25.33-25.33A25.36,25.36,0,0,1,150.72,152.93Z"/><path d="M150.72,102.76a24.83,24.83,0,1,1-24.83,24.83,24.86,24.86,0,0,1,24.83-24.83m0-1a25.83,25.83,0,1,0,25.83,25.83,25.83,25.83,0,0,0-25.83-25.83Z"/><path class="cls-1" d="M258.5,152.93a25.33,25.33,0,1,1,25.33-25.33A25.36,25.36,0,0,1,258.5,152.93Z"/><path d="M258.5,102.76a24.83,24.83,0,1,1-24.83,24.83,24.86,24.86,0,0,1,24.83-24.83m0-1a25.83,25.83,0,1,0,25.83,25.83,25.83,25.83,0,0,0-25.83-25.83Z"/><line class="cls-2" x1="51.67" y1="91.93" x2="124.89" y2="127.59"/><line class="cls-2" x1="51.67" y1="162.04" x2="124.89" y2="127.59"/><line class="cls-2" x1="176.56" y1="127.59" x2="232.67" y2="127.59"/><text></text><text class="cls-3" transform="translate(62.1 88.38)">weight <tspan class="cls-4" x="38.36" y="0">w0</tspan></text><text class="cls-3" transform="translate(62.1 166.71)">weight <tspan class="cls-4" x="38.36" y="0">w1</tspan></text><text class="cls-3" transform="translate(13.5 155.64)">input<tspan class="cls-4"><tspan x="6.67" y="14.4">x1</tspan></tspan></text><text class="cls-3" transform="translate(13.5 85.53)">input<tspan class="cls-4"><tspan x="6.67" y="14.4">x0</tspan></tspan></text><text class="cls-5" transform="translate(130.05 129.51)"><tspan class="cls-6">f </tspan><tspan class="cls-7" x="5.28" y="0">(</tspan><tspan class="cls-8" x="8.61" y="0">Σ</tspan><tspan class="cls-7" x="15.15" y="0">wx+b)</tspan></text><text class="cls-3" transform="translate(243.17 120.51)">output<tspan class="cls-4"><tspan x="12.67" y="14.4">y</tspan></tspan></text><text></text><path class="cls-1" d="M150.72,51.17a25.33,25.33,0,1,1,25.33-25.33A25.36,25.36,0,0,1,150.72,51.17Z"/><path d="M150.72,1a24.83,24.83,0,1,1-24.83,24.83A24.86,24.86,0,0,1,150.72,1m0-1a25.83,25.83,0,1,0,25.83,25.83A25.83,25.83,0,0,0,150.72,0Z"/><text class="cls-3" transform="translate(141.06 19.44)">bias<tspan class="cls-4"><tspan x="3.67" y="14.4">b0</tspan></tspan></text><line class="cls-2" x1="150.72" y1="51.67" x2="150.72" y2="101.76"/></g></g></svg>