<svg xmlns="http://www.w3.org/2000/svg" viewBox="0 0 405.33 314.67"><defs><style>.cls-1{fill:#fff;}.cls-2{font-size:12px;}.cls-2,.cls-7{font-family:TimesNewRomanPSMT, Persian;}.cls-3,.cls-4{font-family:TimesNewRomanPS-ItalicMT, Times New Roman;}.cls-3,.cls-5{font-style:italic;}.cls-6{font-family:TimesNewRomanPS-BoldMT, Times New Roman;font-weight:700;}.cls-8{fill:none;stroke:#000;stroke-miterlimit:10;}</style></defs><title>Asset 1</title><g id="Layer_2" data-name="Layer 2"><g id="Layer_1-2" data-name="Layer 1"><path class="cls-1" d="M50.56,100.61a50.06,50.06,0,1,1,50.06-50.06A50.11,50.11,0,0,1,50.56,100.61Z"/><path d="M50.56,1A49.56,49.56,0,1,1,1,50.56,49.61,49.61,0,0,1,50.56,1m0-1a50.56,50.56,0,1,0,50.56,50.56A50.56,50.56,0,0,0,50.56,0Z"/><text class="cls-2" transform="translate(40.89 47.22)">bias<tspan class="cls-3"><tspan x="3.67" y="14.4">b0</tspan></tspan></text><path class="cls-1" d="M50.56,207.39a50.06,50.06,0,1,1,50.06-50.06A50.11,50.11,0,0,1,50.56,207.39Z"/><path d="M50.56,107.78A49.56,49.56,0,1,1,1,157.33a49.61,49.61,0,0,1,49.56-49.56m0-1a50.56,50.56,0,1,0,50.56,50.56,50.56,50.56,0,0,0-50.56-50.56Z"/><text class="cls-2" transform="translate(38.22 153.99)">input<tspan class="cls-3"><tspan x="6.67" y="14.4">x0</tspan></tspan></text><path class="cls-1" d="M50.56,314.17a50.06,50.06,0,1,1,50.06-50.06A50.11,50.11,0,0,1,50.56,314.17Z"/><path d="M50.56,214.56A49.56,49.56,0,1,1,1,264.11a49.61,49.61,0,0,1,49.56-49.56m0-1a50.56,50.56,0,1,0,50.56,50.56,50.56,50.56,0,0,0-50.56-50.56Z"/><text class="cls-2" transform="translate(38.22 260.77)">input<tspan class="cls-3"><tspan x="6.67" y="14.4">x1</tspan></tspan></text><path class="cls-1" d="M202.67,207.39a50.06,50.06,0,1,1,50.06-50.06A50.11,50.11,0,0,1,202.67,207.39Z"/><path d="M202.67,107.78a49.56,49.56,0,1,1-49.56,49.56,49.61,49.61,0,0,1,49.56-49.56m0-1a50.56,50.56,0,1,0,50.56,50.56,50.56,50.56,0,0,0-50.56-50.56Z"/><text class="cls-2" transform="translate(179.01 153.99)">activation<tspan class="cls-4"><tspan class="cls-5" x="0.94" y="14.4">h(</tspan><tspan class="cls-6" x="10.94" y="14.4">x·w</tspan><tspan class="cls-7" x="29.61" y="14.4">+b</tspan><tspan class="cls-5" x="42.38" y="14.4">)</tspan></tspan></text><path class="cls-1" d="M354.78,207.39a50.06,50.06,0,1,1,50.06-50.06A50.11,50.11,0,0,1,354.78,207.39Z"/><path d="M354.78,107.78a49.56,49.56,0,1,1-49.56,49.56,49.61,49.61,0,0,1,49.56-49.56m0-1a50.56,50.56,0,1,0,50.56,50.56,50.56,50.56,0,0,0-50.56-50.56Z"/><text class="cls-2" transform="translate(339.44 153.99)">output<tspan class="cls-3"><tspan x="12.67" y="14.4">y</tspan></tspan></text><line class="cls-8" x1="101.11" y1="157.33" x2="152.11" y2="157.33"/><line class="cls-8" x1="253.22" y1="157.33" x2="304.22" y2="157.33"/><line class="cls-8" x1="101.11" y1="50.56" x2="152.11" y2="157.33"/><line class="cls-8" x1="101.11" y1="264.11" x2="152.11" y2="157.33"/></g></g></svg>